<?xml version="1.0" encoding="utf-8"?>
<svg width="150px" height="150px" viewBox="0 0 150 150" version="1.1" xmlns:xlink="http://www.w3.org/1999/xlink" xmlns="http://www.w3.org/2000/svg">
  <g id="Group-2">
    <path d="M0 75C0 33.5786 33.5786 0 75 0C116.421 0 150 33.5786 150 75C150 116.421 116.421 150 75 150C33.5786 150 0 116.421 0 75Z" id="Oval" fill="#000000" fill-rule="evenodd" stroke="none" />
    <g id="Group" transform="translate(27 58.400024)">
      <path d="M16.032 33.6L6.67572e-06 33.6L6.67572e-06 28.8L5.42401 28.8L5.42401 4.79997L6.67572e-06 4.79997L6.67572e-06 -2.67029e-05L16.032 -2.67029e-05L16.032 4.79997L10.608 4.79997L10.608 28.8L16.032 28.8L16.032 33.6ZM69.432 33.6L64.248 33.6L64.248 -2.67029e-05L69.336 -2.67029e-05L80.3458 17.9179L91.512 -2.67029e-05L96.312 -2.67029e-05L96.312 33.6L91.128 33.6L91.128 19.824Q91.128 15.504 91.344 12.048Q91.4486 10.3746 91.6263 8.71248L81.768 23.952L78.6 23.952L68.9557 8.74696Q69.118 10.2482 69.216 11.784Q69.432 15.168 69.432 19.824L69.432 33.6ZM40.1915 34.9253C30.5265 34.9253 22.6915 27.2022 22.6915 17.6753C22.6915 8.98506 29.2108 1.79573 37.6915 0.599983L37.6915 5.84549C32.1644 6.91837 27.9915 11.7845 27.9915 17.6253C27.9915 24.2527 33.3641 29.6253 39.9915 29.6253C45.806 29.6253 50.6546 25.49 51.7566 20L40.044 20L40.044 9.09998L45.544 9.09998L45.544 14.7L57.0343 14.7C57.0343 14.7 57.4119 16.2297 57.5062 17.5909C57.5857 18.7383 57.5186 19.6632 57.4956 19.9253L57.544 19.9253C56.4255 28.3891 49.0829 34.9253 40.1915 34.9253Z" id="M-Union" fill="#C800FF" fill-rule="evenodd" stroke="none" />
    </g>
  </g>
</svg>